<svg xmlns="http://www.w3.org/2000/svg" width="70" height="18" viewBox="0 0 70 18">
    <defs>
        <clipPath id="l32f4jqfca">
            <path data-name="사각형 150218" style="fill:#1d2228" d="M0 0h68.609v15.997H0z"/>
        </clipPath>
    </defs>
    <path data-name="사각형 153518" style="fill:none" d="M0 0h70v18H0z"/>
    <g data-name="그룹 147181">
        <g data-name="그룹 147180" style="clip-path:url(#l32f4jqfca)" transform="translate(1 1)">
            <path data-name="패스 210168" d="M110.656 6.522H107.5V4.2h-1.483v5.958h1.483V7.685h3.158v2.468h1.48V4.2h-1.48z" transform="translate(-83.075 -3.396)" style="fill:#1d2228"/>
            <path data-name="패스 210169" d="M275 4.536a1.227 1.227 0 0 0-.329.927v4.69h1.479v-1.9h3.144v1.9h1.486V4.2h-4.62a1.67 1.67 0 0 0-1.16.336m1.528.823h2.765v1.728h-3.144V5.7a.425.425 0 0 1 .056-.265c.069-.077.182-.071.322-.075" transform="translate(-215.236 -3.395)" style="fill:#1d2228"/>
            <path data-name="패스 210170" d="M210.989 4.2h-4.63v5.958h1.483V5.36h2.779c.14 0 .253 0 .32.075s.053.2.058.265v4.454h1.482v-4.69a1.24 1.24 0 0 0-.33-.928 1.673 1.673 0 0 0-1.162-.341" transform="translate(-161.705 -3.396)" style="fill:#1d2228"/>
            <path data-name="패스 210171" d="M176.659 8.647a.432.432 0 0 1-.057.265c-.07.079-.185.072-.321.075H173.5V4.2h-1.482v5.958h4.628a1.674 1.674 0 0 0 1.16-.342 1.217 1.217 0 0 0 .331-.926V4.2h-1.481z" transform="translate(-134.798 -3.395)" style="fill:#1d2228"/>
            <path data-name="패스 210172" d="M246.836 5.463a1.227 1.227 0 0 0-.329-.927 1.668 1.668 0 0 0-1.16-.341h-4.627v5.958h4.628a1.672 1.672 0 0 0 1.16-.342 1.225 1.225 0 0 0 .329-.926zm-1.476 3.184a.451.451 0 0 1-.056.265c-.07.079-.185.072-.32.075H242.2V5.359h2.785c.135 0 .25 0 .32.075s.05.2.056.265z" transform="translate(-188.631 -3.395)" style="fill:#1d2228"/>
            <path data-name="패스 210173" d="m140.283 6.8-1.8-2.606h-1.76l2.767 3.755v2.2h1.582v-2.2l2.765-3.749h-1.759z" transform="translate(-107.139 -3.396)" style="fill:#1d2228"/>
            <path data-name="패스 210174" d="M309.764 4.2v5.958h1.581V4.2z" transform="translate(-242.735 -3.396)" style="fill:#1d2228"/>
            <path data-name="패스 210175" d="M237.857 53.221v-4.759h-1.54v5.958h5.036v-1.2z" transform="translate(-185.181 -39.223)" style="fill:#1d2228"/>
            <path data-name="패스 210176" d="M174.455 49.7h4.023v-1.238h-5.563v5.957h5.563v-1.234h-4.023V52h3.494v-1.12h-3.494V49.7z" transform="translate(-135.498 -39.223)" style="fill:#1d2228"/>
            <path data-name="패스 210177" d="M206.155 49.7h4.025v-1.238h-5.564v5.957h5.564v-1.234h-4.025V52h3.5v-1.12h-3.5V49.7z" transform="translate(-160.34 -39.223)" style="fill:#1d2228"/>
            <path data-name="패스 210178" d="M110.772 50.819h-2.907c-.251 0-.375-.112-.375-.337v-.519c0-.177.124-.266.375-.266h4.07v-1.234H107.5q-1.483 0-1.483 1.264v1.108q0 1.22 1.417 1.22h2.892q.376 0 .375.337v.528q0 .266-.375.266h-4.249v1.234h4.623q1.49 0 1.491-1.27v-1.11q0-1.22-1.418-1.221" transform="translate(-83.075 -39.223)" style="fill:#1d2228"/>
            <path data-name="패스 210179" d="M139.017 48.462V49.7h2.289v4.72h1.54V49.7h2.289v-1.238z" transform="translate(-108.935 -39.223)" style="fill:#1d2228"/>
        </g>
    </g>
</svg>
