<svg xmlns="http://www.w3.org/2000/svg" width="28" height="28" viewBox="0 0 28 28">
    <defs>
        <clipPath id="9htycg7b6a">
            <path data-name="사각형 153512" style="fill:none" d="M0 0h20.568v22H0z"/>
        </clipPath>
    </defs>
    <path style="opacity:.15;fill:none" d="M0 0h28v28H0z"/>
    <g data-name="그룹 149898">
        <g data-name="그룹 149897" style="clip-path:url(#9htycg7b6a)" transform="translate(4 3)">
            <path data-name="패스 210795" d="M10.285 11a6.287 6.287 0 0 0 4.242-1.611A5.277 5.277 0 0 0 16.285 5.5a5.28 5.28 0 0 0-1.758-3.889 6.393 6.393 0 0 0-8.485 0A5.279 5.279 0 0 0 4.285 5.5a5.285 5.285 0 0 0 1.759 3.888A6.293 6.293 0 0 0 10.285 11zm0-9.428a4.49 4.49 0 0 1 3.03 1.15A3.768 3.768 0 0 1 14.57 5.5a3.766 3.766 0 0 1-1.255 2.778 4.563 4.563 0 0 1-6.06 0A3.764 3.764 0 0 1 6 5.5a3.775 3.775 0 0 1 1.256-2.777 4.5 4.5 0 0 1 3.029-1.151zm10.236 17.943c-.969-4.022-5.273-6.943-10.236-6.943S1.017 15.493.048 19.515a1.826 1.826 0 0 0 .429 1.639A2.655 2.655 0 0 0 2.461 22h15.647a2.651 2.651 0 0 0 1.981-.846 1.827 1.827 0 0 0 .432-1.639zm-1.768.654a.878.878 0 0 1-.645.259H2.461a.878.878 0 0 1-.645-.259.338.338 0 0 1-.093-.314c.795-3.31 4.4-5.712 8.561-5.712s7.767 2.4 8.562 5.711a.339.339 0 0 1-.093.315z" style="fill:#fff"/>
        </g>
    </g>
</svg>
