<svg xmlns="http://www.w3.org/2000/svg" width="24" height="24" viewBox="0 0 24 24">
    <defs>
        <clipPath id="pdrs6rfh8a">
            <path data-name="사각형 152657" style="fill:none" d="M0 0h18v18H0z"/>
        </clipPath>
    </defs>
    <path data-name="사각형 152654" style="fill:none" d="M0 0h24v24H0z"/>
    <g data-name="그룹 148924">
        <g data-name="그룹 148923" style="clip-path:url(#pdrs6rfh8a)" transform="translate(3 3)">
            <path data-name="패스 210553" d="M15.75 0H2.25A2.25 2.25 0 0 0 0 2.25v13.5A2.249 2.249 0 0 0 2.25 18h13.5A2.25 2.25 0 0 0 18 15.75V2.25A2.251 2.251 0 0 0 15.75 0m-.565 5.616h-.007v7.552a.55.55 0 0 1-.549.549h-.908a.548.548 0 0 1-.54-.549V5.616a.549.549 0 0 1 .548-.549h.908a.549.549 0 0 1 .548.549m-11.97.307a.672.672 0 0 1 .619-.416.659.659 0 0 1 .318.083L6.609 3.8a.611.611 0 0 1 0-.128.669.669 0 0 1 1.335-.017l2.339 1.018a.673.673 0 0 1 .767-.083l2.46-1.796a.6.6 0 0 1 0-.127.669.669 0 1 1 .655.668.657.657 0 0 1-.325-.083l-2.46 1.793a.813.813 0 0 1 0 .128.669.669 0 0 1-1.323.008L7.718 4.16a.672.672 0 0 1-.766.083L4.491 6.037a.6.6 0 0 1 .012.127.669.669 0 1 1-1.288-.241m7.951 2.059a.547.547 0 0 1 .548.546v4.642a.549.549 0 0 1-.548.549h-.9a.549.549 0 0 1-.548-.549V8.528a.547.547 0 0 1 .543-.544h.9zM7.723 6.234a.547.547 0 0 1 .548.549v6.395a.547.547 0 0 1-.548.548h-.9a.549.549 0 0 1-.549-.548V6.783a.548.548 0 0 1 .544-.548h.907zm-4.9 3.46a.55.55 0 0 1 .549-.548h.908a.55.55 0 0 1 .541.548v3.475a.55.55 0 0 1-.549.549h-.9a.55.55 0 0 1-.549-.549zM15.351 16H2.648a.283.283 0 0 1 0-.566h12.7a.283.283 0 0 1 0 .566" style="fill:#fff"/>
        </g>
    </g>
</svg>
