<svg xmlns="http://www.w3.org/2000/svg" width="24" height="24" viewBox="0 0 24 24">
    <path data-name="사각형 152654" style="fill:none" d="M0 0h24v24H0z"/>
    <g data-name="그룹 148926">
        <g data-name="그룹 149909">
            <path data-name="패스 210555" d="M10 11.433 20 7.9l-3.6-1.275-6.277 2.22a.348.348 0 0 1-.123.022.352.352 0 0 1-.126-.022L3.6 6.625 0 7.9z" transform="translate(2 7.31)" style="fill:#fff"/>
            <path data-name="패스 210556" d="m9.875 8.265 8.75-3.092L15.027 3.9 10 5.678a.348.348 0 0 1-.126.022.352.352 0 0 1-.126-.022L4.723 3.9l-3.6 1.272z" transform="translate(2.125 6.422)" style="fill:#fff"/>
            <path data-name="패스 210557" d="m9.75 5.3 7.5-2.652L9.75 0l-7.5 2.65z" transform="translate(2.25 5.258)" style="fill:#fff"/>
        </g>
    </g>
</svg>
