<svg xmlns="http://www.w3.org/2000/svg" width="24" height="24" viewBox="0 0 24 24">
    <path data-name="사각형 152654" style="fill:none" d="M0 0h24v24H0z"/>
    <path data-name="패스 210554" d="m17.132 7.444-.986-.124-.987-2.358.741-.992a.787.787 0 0 0 0-1.113l-.494-.5-.493-.5a.764.764 0 0 0-1.08-.029l-.029.029L12.7 2.6l-2.1-.868-.121-.992Q10.294 0 9.738 0H8.257Q7.7 0 7.516.74l-.123.992-2.341.993-.984-.741a.774.774 0 0 0-1.095-.014l-.015.015-.493.5-.494.5a.778.778 0 0 0-.018 1.1l.018.018.741.868-.985 2.349-.987.124Q0 7.63 0 8.184v1.49q0 .559.74.74l.987.124.987 2.362-.494.62a.787.787 0 0 0 0 1.114l.494.5.493.5a.764.764 0 0 0 1.08.028l.029-.028.615-.5 2.588.992.123 1.116q.186.741.741.741h1.48q.555 0 .741-.741l.123-1.116 2.341-.992.74.5a.773.773 0 0 0 1.094.015l.016-.015.493-.5.494-.5a.777.777 0 0 0 .018-1.1l-.018-.018-.617-.74.863-2.358 1.108-.124q.741-.188.741-.742V8.064c-.007-.248-.253-.495-.868-.62M9 11.289a2.233 2.233 0 1 1 2.222-2.243v.01a2.215 2.215 0 0 1-2.2 2.234H9z" transform="translate(3 3)" style="fill:#fff"/>
</svg>
