<svg xmlns="http://www.w3.org/2000/svg" width="24" height="24" viewBox="0 0 24 24">
    <defs>
        <clipPath id="b2vvia191a">
            <path data-name="사각형 152656" style="fill:transparent" d="M0 0h18v16.815H0z"/>
        </clipPath>
    </defs>
    <path data-name="사각형 152654" style="fill:none" d="M0 0h24v24H0z"/>
    <g data-name="그룹 148922">
        <g data-name="그룹 148921" transform="translate(3 4)" style="clip-path:url(#b2vvia191a)">
            <path data-name="패스 210552" d="M9.592 0a8.407 8.407 0 0 0-8.407 8.408 8.27 8.27 0 0 0 1 3.963c-.14.961-1.4 1.842-1.88 2.122a.615.615 0 0 0-.3.44.63.63 0 0 0 .161.5 2.785 2.785 0 0 0 2.021.58 6.111 6.111 0 0 0 2.523-.76A8.409 8.409 0 1 0 9.592 0zm0 10.209a.991.991 0 0 1-1-1V4a1 1 0 0 1 2 0v5.2a.991.991 0 0 1-1 1m0 3.6a1.2 1.2 0 1 1 1.2-1.2 1.2 1.2 0 0 1-1.2 1.2" style="fill:#fff"/>
        </g>
    </g>
</svg>
